<svg xmlns="http://www.w3.org/2000/svg" aria-hidden="true" focusable="false" data-prefix="fas" data-icon="horse" role="img" width="576" height="512" style=""><rect id="backgroundrect" width="100%" height="100%" x="0" y="0" fill="none" stroke="none"/><g class="currentLayer" style=""><title>Layer 1</title><path fill="#ffffff" d="M575.92,75.82480618953704 c-0.010000000000000002,-8.13 -3.02,-15.870000000000001 -8.58,-21.8 c-3.7800000000000002,-4.03 -8.58,-9.12 -13.69,-14.5 c11.06,-6.84 19.5,-17.49 22.18,-30.66 C576.85,3.904806189537048 572.96,-0.7751938104629517 567.9,-0.7751938104629517 H447.92 c-70.69,0 -128,57.31 -128,128 H160 c-28.84,0 -54.4,12.98 -72,33.11 V159.22480618953705 c-48.53,0 -88,39.47 -88,88 v56 c0,8.84 7.16,16 16,16 h16 c8.84,0 16,-7.16 16,-16 v-56 c0,-13.22 6.87,-24.39 16.78,-31.68 c-0.21000000000000002,2.58 -0.78,5.05 -0.78,7.68 c0,27.64 11.84,52.36 30.54,69.88 l-25.72,68.6 a63.945,63.945 0 0 0 -2.16,37.99 l24.85,99.41 A15.982,15.982 0 0 0 107.02,511.22480618953705 h65.96 c10.41,0 18.05,-9.78 15.52,-19.88 l-26.31,-105.26 l23.84,-63.59 L320,344.82480618953707 V495.22480618953705 c0,8.84 7.16,16 16,16 h64 c8.84,0 16,-7.16 16,-16 V317.4448061895371 c19.74,-20.19 32,-47.75 32,-78.22 c0,-0.22000000000000003 -0.07,-0.42000000000000004 -0.08000000000000002,-0.6400000000000001 V136.11480618953703 l16,7.11 l18.9,37.7 c7.45,14.870000000000001 25.05,21.55 40.49,15.37 l32.55,-13.02 a31.997,31.997 0 0 0 20.12,-29.74 l-0.06000000000000001,-77.71 zm-64,19.4 c-8.84,0 -16,-7.16 -16,-16 s7.16,-16 16,-16 s16,7.16 16,16 s-7.16,16 -16,16 z" id="svg_1" class="selected" fill-opacity="1"/></g></svg>